<svg id="Слой_1" data-name="Слой 1" xmlns="http://www.w3.org/2000/svg" viewBox="0 0 48 48"><defs><style>.cls-1{fill:#a1a1a1;}.cls-1,.cls-10,.cls-14,.cls-17,.cls-20,.cls-21,.cls-22,.cls-23,.cls-24,.cls-25,.cls-3,.cls-6,.cls-9{stroke:#000;}.cls-1,.cls-10,.cls-11,.cls-13,.cls-21,.cls-23,.cls-24,.cls-25,.cls-3,.cls-6,.cls-9{stroke-miterlimit:10;}.cls-1,.cls-2,.cls-3{stroke-width:0.52px;}.cls-10,.cls-17,.cls-2,.cls-20{fill:none;}.cls-2{stroke:#fff;}.cls-14,.cls-17,.cls-2,.cls-24{stroke-linecap:round;}.cls-14,.cls-17,.cls-2,.cls-20,.cls-22{stroke-linejoin:round;}.cls-3{fill:#6b6b6b;}.cls-23,.cls-24,.cls-4{fill:#f0d6b7;}.cls-5{fill:#f7e4cd;}.cls-6{fill:#6d6b6d;}.cls-10,.cls-11,.cls-17,.cls-20,.cls-21,.cls-22,.cls-24,.cls-6,.cls-9{stroke-width:0.57px;}.cls-21,.cls-7{fill:#394a5c;}.cls-11,.cls-8{fill:#2d3e51;}.cls-25,.cls-9{fill:#fff;}.cls-11,.cls-13{stroke:#231f20;}.cls-12,.cls-13{isolation:isolate;}.cls-13{font-size:4.6px;fill:#231f20;stroke-width:0.17px;font-family:Georgia-Bold, Georgia;font-weight:700;}.cls-14{stroke-width:0.19px;}.cls-15{fill:#5a86c5;}.cls-16{fill:#446594;}.cls-18,.cls-22{fill:#85bbe3;}.cls-19{fill:#648caa;}.cls-23{stroke-width:0.44px;}.cls-25{stroke-width:0.37px;}</style></defs><title>logoМонтажная область 14</title><path class="cls-1" d="M44.5,22.89l-.28-.12c-2.66-1.12-5.53-1.62-8.28-2.48s-5.8-1.61-8.69-2.44c-3.67-1-11.31-3.72-13.36-4.44a1.17,1.17,0,0,1-.71-.69c-.81-2.11-1.44-4.17-3.81-4.89A7.74,7.74,0,0,0,.6,11c-.95,1.59,5,.76,5.57.85,2.44.35,2.47,3.24,1.5,5C6.5,19,3.83,17.51,2.18,17a.84.84,0,0,0-1.11.79c.16,3.67,4.85,5.07,7.83,4,1.26-.46,2.28-1.9,3.68-1.83,2.28.11,4.42,1.46,6.55,2.2,2.56.88,5.14,1.73,7.75,2.48a93.21,93.21,0,0,1,9.48,3.65c2.56,1,6.52,3.19,9.28,1.72a3.7,3.7,0,0,0,1.83-3.71A4.5,4.5,0,0,0,44.5,22.89Zm-.89,5.66a1.69,1.69,0,1,1,1.69-1.69A1.69,1.69,0,0,1,43.61,28.55Z"/><path class="cls-2" d="M43.46,29.64A15.82,15.82,0,0,1,37.78,28l-1.12-.48-2.09-.87a67.39,67.39,0,0,0-7.47-2.8c-2.26-.65-4.64-1.41-7.71-2.47-.65-.22-1.3-.51-2-.81a13.69,13.69,0,0,0-4.78-1.43h-.13a4.57,4.57,0,0,0-2.65,1.15A5.5,5.5,0,0,1,8.62,21a5.55,5.55,0,0,1-1.89.31c-2.34,0-4.76-1.22-4.86-3.56h0c.26.08.55.19.84.31a8.77,8.77,0,0,0,3,.77,2.8,2.8,0,0,0,2.59-1.53,5.17,5.17,0,0,0,.29-4.52,3,3,0,0,0-2.39-1.67H6c-.22,0-.56,0-1,0-.65,0-1.45.09-2.2.09a7.63,7.63,0,0,1-1.34-.09,6.8,6.8,0,0,1,5.62-2.8,7,7,0,0,1,2,.29c1.83.55,2.4,2.05,3.12,4l.17.45a2,2,0,0,0,1.19,1.15c2.22.78,9.74,3.41,13.41,4.45,1.11.32,2.24.62,3.34.92,1.76.47,3.58,1,5.34,1.51,1,.32,2.06.59,3.07.85a37.53,37.53,0,0,1,5.13,1.6l.26.11c1.54.7,2.33,1.57,2.5,2.73a2.88,2.88,0,0,1-1.42,2.89,3.73,3.73,0,0,1-1.79.4Z"/><path class="cls-3" d="M41.15,23.62,26.77,19.29l-6.88-2.07-2.72-.82c-1.05-.32-2.05-1.16-3.19-.62a1.5,1.5,0,0,0-.38,2.49c1,.84,3.21,1.15,4.48,1.59q7.8,2.71,15.58,5.47l6.18,2.18a4.25,4.25,0,0,1,0-2.6A2.72,2.72,0,0,1,41.15,23.62Z"/><path class="cls-4" d="M27.66,24.23c2-.7,3.54-3.41,3.95-4.39a8.6,8.6,0,0,0,.68-5.4c-.27-.95.16-1.75.17-2.74,0-2.06-2.23-2.87-4.88-2.68-5.34.38-5.21,2.08-7,2.68-.37.13-1.23.29-1.58.46a9.43,9.43,0,0,0-1.82,1.74c-.74-.7-2.33-.15-2.73.71a3.44,3.44,0,0,0,.48,2.9c1.85,2.92,3.39,1.66,3.39,1.66a18,18,0,0,0,.5,2c.4,1.2.85,2.27.85,2.27l-.44.66a.6.6,0,0,1-.35.25l-.79.2a.51.51,0,0,1-.25,0l-.65-.16a.82.82,0,0,0-.67.13c-1.36,1-6.72,4.87-7.07,7.16-.19,1.26,1.72,4.07,2.55,5.11s2.5,2.44,3.12,3.41c.41.64.71,2.13,1.42,2.84a3.84,3.84,0,0,0,2,1.14c.35,0,.85-.85.85-.85a2.39,2.39,0,0,0,.57,0c.71-.14.85-1.42.85-1.42s.81-.35,1-.71a2.18,2.18,0,0,0,.14-1.56c-.13-.38-1.14-1.14-1.14-1.14s.35-1.06-1.72-1.51a.77.77,0,0,0-.56.09,1.87,1.87,0,0,0-.85.85s-1-2.82-1.42-3.41a4.86,4.86,0,0,0-1.42-1.14L18,30.8l2,2.84,11.92,1.14s3.52,2.94,4.83,2.55c2.41-.71,3.07-7.66,3.07-7.66L36.32,28.3l-1,2.78s-.57-3.12-2-4S27.66,24.23,27.66,24.23Z"/><path id="path100" d="M24.84,11.24c-1.69-.55-2.65.5-3.27,1.62-.46-.15-.22-.77-.07-1.09a3,3,0,0,1,2.73-1.61c.43.1,1,.56.61,1.07"/><path id="path100-2" data-name="path100" d="M28.79,10.93c1.78-1,2.91.17,3.54.89.42-.25,0-.8-.16-1.08a3,3,0,0,0-3-1c-.4.19-.85.75-.37,1.18"/><path id="path44" class="cls-5" d="M24.7,12.88s-1.09.1-1.12.79,1.2.7,1.56.42"/><path id="path104" d="M24.55,12.13c.18.32.28.68.45,1a4.59,4.59,0,0,0,.66.87,1.35,1.35,0,0,1,.25.35c.19.45-.26.83-.64,1a2.46,2.46,0,0,1-1.33,0,1,1,0,0,1-.47-.22.48.48,0,0,1,0-.62c.1-.17.75.09.91.12a1.1,1.1,0,0,0,.95-.19c-.35-.54-1-1.62-.77-2.27"/><path id="path106" d="M26.37,19.51c-.5-.1-.71-1.1-.35-1.6.2.33.09.94.63,1a3.79,3.79,0,0,0,2.74-1c1-.83.2-1.08-.24-1.54-.9-.95-2-2.17-2-3.68.33-.25.33.23.42.48.78,2.12,2.8,3.47,2.95,3.72a.7.7,0,0,1-.13.85A5.52,5.52,0,0,1,26.37,19.51Z"/><path id="path110" d="M31,18.83a3.14,3.14,0,0,1-2.69,2.1,3.68,3.68,0,0,1,0-1A7.83,7.83,0,0,0,31,18.83"/><path id="path112" d="M23.85,19.56a9.44,9.44,0,0,0,4,.46,4.53,4.53,0,0,1,.08,1c-1.66.11-3.63-.27-4.08-1.43"/><path id="path114" d="M23.76,20.16c.68,1.64,2.94,1.42,4.84,1.34a1,1,0,0,1-.48.57,4.84,4.84,0,0,1-3.14,0,4.3,4.3,0,0,1-1.2-1.29c-.14-.18-.86-.64,0-.65"/><path class="cls-6" d="M17.19,13.9a3.13,3.13,0,0,1,1,1.12c.27.69,0,1.44.3,1.86.15.23,1.49-.61,1.43-1.2s-.3-.25-.61-1.66c-.11-.52.29-1.62-.13-1.82s-.86.52-1.18.84S17.19,13.9,17.19,13.9Z"/><path class="cls-7" d="M15.95,9.32a3.68,3.68,0,0,0-2.28,2.55,3.59,3.59,0,0,0,.71,2.89,1.73,1.73,0,0,1,1.27-1.08,1.61,1.61,0,0,1,1.3.29l2.13-1.9a3.77,3.77,0,0,0,2.24-.86,10.88,10.88,0,0,1,4.55-2c6.68-.88,6.59,2.51,6.59,2.51S35,10.9,34.67,9.45C34.38,8.29,32.75,8,32.75,8s.43-5.85-2.62-6.17C27.62,1.56,23,1.1,20.39,3.14S15.95,9.32,15.95,9.32Z"/><path class="cls-8" d="M18.1,11.85S16,13.42,15.47,13a1.72,1.72,0,0,1,.45-3,2.54,2.54,0,0,0,2-1.82s-1.07.76-1.7.64c-.22,0-.26.5-.26.5A3.46,3.46,0,0,0,13.08,12c-.27,1.19,1.3,2.78,1.3,2.78a2.6,2.6,0,0,1,1.27-1.08,3.88,3.88,0,0,1,1.3.29l2.13-1.9a10.51,10.51,0,0,0,1.52-.37,33.85,33.85,0,0,0,4.08-3,15.43,15.43,0,0,0-3.61,2.08c-1.3,1-3.38.11-3.38.11s-.28.28.12.74A.7.7,0,0,0,18.1,11.85Z"/><path d="M15.92,9a2.7,2.7,0,0,0,1.55-.4A3,3,0,0,1,16,9.6Z"/><path class="cls-9" d="M25.41,7.44a2.87,2.87,0,0,1-.68-2.27C25,3,26.32,2.71,27.33,2.69A2.79,2.79,0,0,1,30.21,5a4.28,4.28,0,0,1-.48,2.13Z"/><path class="cls-7" d="M33.26,8.11s-.5-.8-4.54-1a15.73,15.73,0,0,0-7.62,2"/><path d="M33.26,8.11a3.45,3.45,0,0,0-1.47-.49,13.56,13.56,0,0,0-1.56-.19,16.45,16.45,0,0,0-3.11,0,22.07,22.07,0,0,0-6,1.7,13,13,0,0,1,2.83-1.49,12.48,12.48,0,0,1,3.13-.78A11.82,11.82,0,0,1,30.29,7a13,13,0,0,1,1.57.35A3.13,3.13,0,0,1,33.26,8.11Z"/><path class="cls-10" d="M15.95,9.32s-2.5,1-2.85,2.55c-.24,1,1.28,2.89,1.28,2.89a1.73,1.73,0,0,1,1.27-1.08,2.67,2.67,0,0,1,1.54.21,9.37,9.37,0,0,1,1.89-1.83c.55-.23,1.37,0,2.24-.86a10.88,10.88,0,0,1,4.55-2c6.68-.88,6.59,2.51,6.59,2.51s2.67-.82,2.21-2.23C34.36,8.53,32.75,8,32.75,8s.38-5-2-5.89C27.62,1,21.85,2.06,20.1,3.43A15.67,15.67,0,0,0,15.95,9.32Z"/><path class="cls-11" d="M29.74,9.2c2.82.54,2.72,2.48,2.72,2.48S35,10.9,34.67,9.45s-2.61-1.68-3.76-1.92c-4.78-1-9.75,3.86-9.75,3.86A10.7,10.7,0,0,1,29.74,9.2Z"/><path class="cls-10" d="M21.66,10.93a12,12,0,0,1,6.26-3.33,10.13,10.13,0,0,1,5.34.52"/><g id="text5675" class="cls-12"><text class="cls-13" transform="matrix(1, -0.07, 0.07, 1, 26.15, 6.87)">J</text></g><path id="path42" class="cls-5" d="M30.53,12.66s-1-.12-1,.6,1.3.64,1.44.57"/><path id="path104-2" data-name="path104" d="M30.35,12c.16.29.25.6.4.89a4.11,4.11,0,0,0,.59.78,1.21,1.21,0,0,1,.23.32c.17.4-.24.74-.57.85a2.2,2.2,0,0,1-1.19,0,.85.85,0,0,1-.42-.2.43.43,0,0,1,0-.55c.09-.15.67.08.81.11a1,1,0,0,0,.85-.17c-.32-.49-.88-1.45-.69-2"/><path id="path40" class="cls-5" d="M25.92,18s.4-1.31.74-1.13a.51.51,0,0,1,.26.54s-1,.37-1,.59"/><path id="path132" class="cls-5" d="M22.86,19.69c.08-.06.42-.11.82.21,0,0-.55,0-.7.86l-.21-.09s0-.85.1-1"/><path id="path132-2" data-name="path132" class="cls-5" d="M14.61,14.21a2.26,2.26,0,0,1,2.5,0s-3-.3-1.53,3.61a3.62,3.62,0,0,1-1.09-1.5c-.09-.35-.37-1.11,0-1.44Z"/><path class="cls-14" d="M15.2,15.6a.81.81,0,0,1,.8-.84c2-.08,1.25,2.49,1.25,2.49s.07-1.23-.4-1.4c-.77-.27-.91.26-.91.26s-.16-.13,0-.41.55-.11.55-.11,0-.38-.6-.47S15.2,15.6,15.2,15.6Z"/><path d="M18.39,18.11a1.44,1.44,0,0,1,.18.54,2.19,2.19,0,0,1,0,.61l-.49-.19a1.79,1.79,0,0,0,.23-.44A1.31,1.31,0,0,0,18.39,18.11Z"/><polygon class="cls-15" points="16.69 24.13 12.25 27.63 16.06 32.31 17.83 30.66 19.82 33.21 32.24 33.92 34.58 29.52 34.01 27.54 28.8 24.78 26.63 28.95 24.64 26.12 18.96 24.41 16.69 24.13"/><path class="cls-16" d="M19.82,33.21,18,30.8a4.51,4.51,0,0,0,.57-.57,5,5,0,0,0,.28-.85l1.42,1.14Z"/><path class="cls-16" d="M14,27.54c.22-.95,1.92-2.3,2.81-2.7a5.73,5.73,0,0,1,1.47-.13S17.54,24,17.22,24c-1.21,0-4,2.79-4,2.79l-.77.38L16,32.15l1-.6s-1.41-2.13-1.87-2.73S14,27.68,14,27.54Z"/><path class="cls-16" d="M34.44,28.48l-.64-1.14s-3-2.31-3.49-1.49c-.32.58,1.62,1.15,2.15,1.55,1.14.85.76,1.43.76,1.43a3.61,3.61,0,0,0-.9,1.69c-.14,1.41.14.86.14.86l2.27-2.27Z"/><path class="cls-17" d="M17.69,37.9a22.09,22.09,0,0,0-1.44-3.43,2.22,2.22,0,0,0-1.4-1.11L18,30.8l2,2.84,11.92,1.14s3.52,2.94,4.83,2.55c2.41-.71,3.12-7.66,3.12-7.66l-3.41-1.42s-.28,0-.81,1.33a8.71,8.71,0,0,0-.33,1.51s-.57-3.12-2-4-5.68-2.89-5.68-2.89c2-.7,3.54-3.41,3.95-4.39a8.6,8.6,0,0,0,.68-5.4c-.27-.95.16-1.75.17-2.74,0-2.06-2.23-2.87-4.88-2.68-5.34.38-5.21,2.08-7,2.68-.37.13-1.23.29-1.58.46a9.43,9.43,0,0,0-1.82,1.74c-.74-.7-2.33-.15-2.73.71a3.44,3.44,0,0,0,.48,2.9c1.85,2.92,3.39,1.66,3.39,1.66a18,18,0,0,0,.5,2c.4,1.2.85,2.27.85,2.27l-.44.66a.6.6,0,0,1-.35.25s-.67-.07-.75-.09l-.93-.16a.82.82,0,0,0-.67.13c-1.36,1-6.72,5.15-7.07,7.45-.19,1.26,1,3.54,2.55,5.39s2.5,2.15,3.12,3.12"/><path class="cls-18" d="M34.82,29.11c-.72-1-3.22,3.39-3.22,3.39l.28,2.84a6.8,6.8,0,0,0,2.27-2.27,5.52,5.52,0,0,0,1.22-2.92c0-.22-.37-.49-.37-.49A1.08,1.08,0,0,0,34.82,29.11Z"/><path class="cls-19" d="M35.11,29.81a.52.52,0,0,1-.17.55,2.1,2.1,0,0,1-1.06.47,3,3,0,0,0,.92-1.1C34.82,29.65,35.11,29.81,35.11,29.81Z"/><path class="cls-20" d="M34.82,29.11c-.72-1-3.22,3.39-3.22,3.39l.28,2.84a6.8,6.8,0,0,0,2.27-2.27,5.52,5.52,0,0,0,1.22-2.92c0-.22-.37-.49-.37-.49A1.08,1.08,0,0,0,34.82,29.11Z"/><path d="M31.63,33.61a1.91,1.91,0,0,1-.27.58,2.22,2.22,0,0,1-.47.51l-.24-.51a1.79,1.79,0,0,0,.52-.2A1.77,1.77,0,0,0,31.63,33.61Z"/><path class="cls-7" d="M19.68,33s.16-.43.27-.74a12.72,12.72,0,0,0,.28-1.7H31.88l.57,1.14a23.05,23.05,0,0,1-.57,4.83c-.26,1-1.42,4-1.42,4s.57.37.57.57-.57.57-.57.57L31,46.41l-5.24-.53-.15-1.46L24.8,45.8l-6.54-.52s.18-.86.28-1.14c.54-1.48,2.08-4.32,2.29-5.88a8.72,8.72,0,0,0-.3-2.92C20.24,34.49,19.68,33,19.68,33Z"/><path class="cls-8" d="M27,46l-1.11-.16-.28-1.7a4.55,4.55,0,0,1,.85.57A6.26,6.26,0,0,1,27,46Z"/><path class="cls-8" d="M30.54,42l-.08-.36s-.47-.1-.57,0c-.28.28-1.14,0-1.14,0s.62.45.85.57A.74.74,0,0,0,30.54,42Z"/><path class="cls-16" d="M29,28l-.57-1.7L27.06,29.1s.87-1.36,1.42-1.42C28.63,27.66,29,28,29,28Z"/><path class="cls-8" d="M21.95,37.9a23.42,23.42,0,0,0-.5-5.57l1.07.46,2-1.14-.28-1.08-3.12,0h-.85a12.72,12.72,0,0,1-.28,1.7c-.11.31-.27.74-.27.74s.56,1.53.84,2.38a8.72,8.72,0,0,1,.3,2.92c-.21,1.56-1.76,4.4-2.29,5.88-.1.28-.28,1.14-.28,1.14l1.7.28.1-1.37a3.3,3.3,0,0,0,1.32-.93,9.47,9.47,0,0,0,1.14-2C23.08,39.88,21.85,38.58,21.95,37.9Z"/><polygon class="cls-8" points="28.76 30.52 28.76 31.37 30.75 32.22 32.27 31.4 31.88 30.52 28.76 30.52"/><path class="cls-20" d="M19.68,33s.16-.43.27-.74a12.72,12.72,0,0,0,.28-1.7H31.88l.57,1.14a23.05,23.05,0,0,1-.57,4.83c-.26,1-1.42,4-1.42,4s.57.37.57.57-.57.57-.57.57L31,46.41l-5.24-.53-.15-1.46L24.8,45.8l-6.54-.52s.18-.86.28-1.14c.54-1.48,2.08-4.32,2.29-5.88a8.72,8.72,0,0,0-.3-2.92C20.24,34.49,19.68,33,19.68,33Z"/><path class="cls-21" d="M29.33,31.08l1.42.57,1.42-.57A8.5,8.5,0,0,0,31,26.83a3.32,3.32,0,0,0-.85-1.14l-2-.85A21.5,21.5,0,0,1,29,27.39,13.5,13.5,0,0,1,29.33,31.08Z"/><path class="cls-16" d="M26.91,29.24a10.12,10.12,0,0,0-2.27-.85,4.82,4.82,0,0,0-1.11.31l-.4-.86L24.36,27Z"/><path class="cls-21" d="M18,24.27a30.13,30.13,0,0,1,1.7,2.55,11.32,11.32,0,0,1,1.14,4.54l1.7.85,1.42-.85s.28-3.41-2.27-5.11a14.67,14.67,0,0,1-2.27-2.55,2.89,2.89,0,0,0-.85,0A2.73,2.73,0,0,0,18,24.27Z"/><path class="cls-8" d="M19.06,24.14l2.8,5.08a.15.15,0,0,0,.23,0c.36-.31,1.28-1.18,1.28-1.87,0-1.18-3-2.86-4.1-3.46A.15.15,0,0,0,19.06,24.14Z"/><path d="M21.38,22.28a5.57,5.57,0,0,0,1.46.86,15.63,15.63,0,0,0,1.55.66,5,5,0,0,0,3.18.16l.19.54a5.36,5.36,0,0,1-3.48-.4,11.89,11.89,0,0,1-1.52-.81A5.64,5.64,0,0,1,21.38,22.28Z"/><path class="cls-22" d="M22.23,28.53a16.27,16.27,0,0,0-1.32-2.15c-.48-.65-1.8-2.68-1.8-2.68l.33-.84a9.05,9.05,0,0,0,3.08,2L25,25.92l1.73,3.18-2.47-2.16Z"/><path class="cls-8" d="M27.34,38.47c.81,0,2.59-.24,3.12-.85.75-.86.57-4.54.57-4.54a20.76,20.76,0,0,1-3.69.57,26.4,26.4,0,0,1-4.54-.28s-.14,3.46.57,4.26,2.89.89,4,.85"/><path d="M27.34,38.47a10.49,10.49,0,0,0,1.94-.37,3.28,3.28,0,0,0,.87-.39A1.2,1.2,0,0,0,30.6,37,8.57,8.57,0,0,0,30.81,35c0-.65,0-1.31,0-2l.31.23a21.13,21.13,0,0,1-4.16.63,26,26,0,0,1-4.18-.33l.29-.24c0,.7,0,1.4,0,2.1a4.89,4.89,0,0,0,.39,2,3,3,0,0,0,1.78.83,13.78,13.78,0,0,0,2.11.2,11,11,0,0,1-2.14,0,3,3,0,0,1-2-.82,5.07,5.07,0,0,1-.56-2.14,17.5,17.5,0,0,1-.07-2.15v-.28l.28,0a27.63,27.63,0,0,0,4.09.27,20.67,20.67,0,0,0,4-.54l.3-.07v.3a17.84,17.84,0,0,1,0,2,8.88,8.88,0,0,1-.33,2,1.45,1.45,0,0,1-.62.87,3.48,3.48,0,0,1-1,.34A8.68,8.68,0,0,1,27.34,38.47Z"/><path class="cls-23" d="M37.24,19.29c-.93-.31-1.5.8-1.5.8l.84.3S37.9,19.51,37.24,19.29Z"/><path class="cls-23" d="M38.56,19.73a.81.81,0,0,0-.66-.44c-.44,0-1,.55-1.2,1a1.94,1.94,0,0,0,.44,1.73C38.12,22.6,38.56,19.73,38.56,19.73Z"/><path class="cls-23" d="M39.88,20.17s-.78-.71-1.1-.66a2.4,2.4,0,0,0-1.32,1.54c-.11.77.23,1.64.66,1.76C38.94,23.06,39.88,20.17,39.88,20.17Z"/><path class="cls-24" d="M15.13,40.17c.41.64.71,2.13,1.42,2.84a3.14,3.14,0,0,0,2,1.14.83.83,0,0,0,.85-.85s1.14.28,1.42-.57c.2-.6,0-.85,0-.85a1.27,1.27,0,0,0,1-.71,2.29,2.29,0,0,0-.14-1.85,2.12,2.12,0,0,0-.85-.85s.28-1.66-1.72-1.51a1.55,1.55,0,0,0-1.41.94"/><path class="cls-23" d="M41.53,21.69A2,2,0,0,0,40.32,20c-.6-.27-1.43.55-1.76,1.32-.17.4-.19,1.6.22,1.76,1.1.44,1.12-.7,1.32-1.1a.68.68,0,0,1,.76-.43C41,21.53,41.53,21.69,41.53,21.69Z"/><path class="cls-18" d="M12,27.11c-.34.11-.28.85-.28.85s-1,0-1.14.28c-.57,1.14,1.09,3,1.7,3.69s2.25,1.79,3.09,1.54c.18-.05.31-.41.31-.41a1,1,0,0,0,.57-.28c.57-.57-.61-2.24-1.7-3.69C13.71,28,12.86,26.83,12,27.11Z"/><path class="cls-19" d="M15.7,33.07l-.43.44a.74.74,0,0,1-.43-.73v-.57Z"/><path class="cls-19" d="M11.16,28a.81.81,0,0,0,.28.85,2.22,2.22,0,0,0,1.42.57s-.28,0-.85-.85a2.53,2.53,0,0,1-.2-.55Z"/><path class="cls-20" d="M12,27.11c-.34.11-.28.85-.28.85s-1,0-1.14.28c-.57,1.14.85,2.84,1.7,3.69.62.62,2.25,1.79,3.09,1.54.18-.05.31-.41.31-.41a1,1,0,0,0,.57-.28c.57-.57-.61-2.24-1.7-3.69C13.71,28,12.86,26.83,12,27.11Z"/><path d="M12,27.89a2.51,2.51,0,0,0,.24.83,1.47,1.47,0,0,0,.62.66,1.61,1.61,0,0,1-.85-.49,2.92,2.92,0,0,1-.56-.86Z"/><path d="M15.57,33.33a2.22,2.22,0,0,1-.46-.52,1.91,1.91,0,0,1-.26-.59,1.77,1.77,0,0,0,.46.39,1.79,1.79,0,0,0,.52.21Z"/><path d="M35.52,30.91a4.93,4.93,0,0,1,.54,1.49,5.35,5.35,0,0,1,.08,1.52,5.21,5.21,0,0,0-.35-1.44,4.55,4.55,0,0,0-.72-1.23Z"/><circle class="cls-25" cx="22.37" cy="30.59" r="0.85"/><path class="cls-18" d="M35,29.66a3,3,0,0,1-1,1.07"/><path d="M35.25,29.8a3.49,3.49,0,0,1-.59.56,2.42,2.42,0,0,1-.69.37,2.74,2.74,0,0,0,.78-1.2Z"/><path class="cls-8" d="M26.49,44.71c-.05-.37-.57-1.42-1.26-1.57"/><path d="M26.49,44.71c-.08-.16-.18-.3-.27-.45a4.73,4.73,0,0,0-.29-.41,2.89,2.89,0,0,0-.31-.39,1.71,1.71,0,0,0-.39-.33.86.86,0,0,1,.53.16,1.84,1.84,0,0,1,.4.39A1.61,1.61,0,0,1,26.49,44.71Z"/><path d="M23.93,43.76a2.63,2.63,0,0,1,.9-.14,2.68,2.68,0,0,1,.91.2,1.64,1.64,0,0,1,1,1.47,2.48,2.48,0,0,0-1.2-1.08A7.31,7.31,0,0,0,23.93,43.76Z"/><path d="M28.76,41.59a2.63,2.63,0,0,0,1-.05,2.39,2.39,0,0,0,.86-.41h0a.21.21,0,0,1,.26.34l0,0a2.68,2.68,0,0,1-1.07.26A2.73,2.73,0,0,1,28.76,41.59Z"/><path d="M17.75,30.62c.2-.18.4-.38.59-.58a2,2,0,0,0,.48-.67,2.15,2.15,0,0,1-.24.82c-.12.26-.25.52-.39.77Z"/><path d="M18.54,41.87a1.52,1.52,0,0,0,.43.69,4.63,4.63,0,0,0,.62.53l-.4.4a5,5,0,0,1-.45-.77A1.65,1.65,0,0,1,18.54,41.87Z"/><path class="cls-8" d="M29.5,27.39l1,.71a.11.11,0,0,0,.17-.1,10.5,10.5,0,0,0-1.1-2.59Z"/><path d="M19.65,40.85c.09.26.35.37.57.49a4.77,4.77,0,0,0,.72.28l-.25.51a5.18,5.18,0,0,1-.63-.56A1.16,1.16,0,0,1,19.65,40.85Z"/><polygon class="cls-22" points="26.77 29.1 28 24.55 29.33 25.12 30.18 27.58 28.38 26.26 26.77 29.1"/><path d="M20,38.18a1.38,1.38,0,0,0,.4.71,3.09,3.09,0,0,0,.73.43,1.1,1.1,0,0,1-.48,0,1.15,1.15,0,0,1-.45-.22,1,1,0,0,1-.26-.44A.74.74,0,0,1,20,38.18Z"/><path class="cls-10" d="M20.23,39a1,1,0,0,0,.3-1.63"/><path class="cls-7" d="M24.22,34.49A5.38,5.38,0,0,0,27,35.63a4.41,4.41,0,0,0,2.91-1.14,17.94,17.94,0,0,1-2.63.57A19,19,0,0,1,24.22,34.49Z"/><path d="M24.22,34.49l1.44.14c.47,0,.94.07,1.41.08s.93,0,1.4,0,.93-.12,1.42-.19a4.63,4.63,0,0,1-2.84.78,6.36,6.36,0,0,1-1.47-.22A5,5,0,0,1,24.22,34.49Z"/><path d="M18,11.21a2.19,2.19,0,0,0,1.54.71l-.08.56A2.48,2.48,0,0,1,18,11.21Z"/><path class="cls-5" d="M10.45,32.08c.87,1.18,1.64,2.35,2.48,3.47.4.57.84,1.12,1.27,1.67l1.36,1.67a8.63,8.63,0,0,1-3.32-2.84A9.91,9.91,0,0,1,10.45,32.08Z"/><path class="cls-5" d="M36.8,29a10.2,10.2,0,0,1-.36,1.21c-.09.19-.14.38-.22.57s-.15.39-.25.59A2.1,2.1,0,0,1,36,30,2.34,2.34,0,0,1,36.8,29Z"/><circle class="cls-25" cx="30.81" cy="30.04" r="0.85"/></svg>